<?xml version="1.0" encoding="UTF-8"?>
<svg xmlns="http://www.w3.org/2000/svg" xmlns:xlink="http://www.w3.org/1999/xlink" width="60pt" height="60pt" viewBox="0 0 60 60" version="1.1">
<g id="surface8155348">
<path style=" stroke:none;fill-rule:nonzero;fill:rgb(100%,100%,100%);fill-opacity:1;" d="M 29.0625 1.875 C 14.074219 1.875 1.875 14.074219 1.875 29.0625 C 1.875 40.921875 9.511719 51.023438 20.117188 54.730469 C 20.265625 54.835938 20.445312 54.902344 20.636719 54.90625 C 23.289062 55.773438 26.121094 56.25 29.0625 56.25 C 44.050781 56.25 56.25 44.050781 56.25 29.0625 C 56.25 14.074219 44.050781 1.875 29.0625 1.875 Z M 29.0625 3.75 C 43.019531 3.75 54.375 15.105469 54.375 29.0625 C 54.375 39.992188 47.410156 49.324219 37.6875 52.863281 C 37.585938 52.558594 37.5 52.109375 37.5 51.800781 L 37.5 46.875 C 37.5 44.914062 36.539062 42.773438 35.597656 41.339844 C 40.800781 40.460938 46.746094 37.761719 46.746094 27.6875 C 46.746094 24.925781 45.882812 22.488281 44.179688 20.4375 C 44.554688 19.207031 45.015625 16.609375 43.726562 13.351562 C 43.621094 13.09375 43.40625 12.890625 43.140625 12.800781 C 42.875 12.722656 40.46875 12.097656 35.476562 15.375 C 33.441406 14.851562 31.292969 14.578125 29.0625 14.570312 C 26.84375 14.578125 24.691406 14.851562 22.664062 15.375 C 17.667969 12.09375 15.257812 12.71875 14.996094 12.800781 C 14.730469 12.890625 14.511719 13.09375 14.410156 13.351562 C 13.117188 16.613281 13.578125 19.207031 13.960938 20.4375 C 12.25 22.488281 11.386719 24.925781 11.386719 27.6875 C 11.386719 37.667969 17.226562 40.417969 22.386719 41.335938 C 21.738281 42.15625 21.058594 43.214844 20.757812 44.296875 C 19.421875 44.667969 16.691406 44.679688 14.855469 41.535156 C 14.792969 41.414062 13.1875 38.566406 10.023438 38.347656 C 9.519531 38.351562 8.246094 38.429688 7.9375 39.402344 C 7.597656 40.484375 8.792969 41.304688 9.304688 41.652344 C 9.339844 41.675781 9.390625 41.703125 9.421875 41.722656 C 9.480469 41.75 10.847656 42.46875 11.863281 45.03125 C 12.078125 45.703125 13.941406 50.753906 20.632812 49.863281 C 20.636719 50.601562 20.632812 50.976562 20.625 51.273438 L 20.625 51.796875 C 20.625 52.101562 20.535156 52.558594 20.429688 52.855469 C 10.707031 49.316406 3.75 39.988281 3.75 29.0625 C 3.75 15.105469 15.105469 3.75 29.0625 3.75 Z M 28.835938 6.566406 C 25.179688 6.605469 21.566406 7.570312 18.382812 9.390625 C 17.933594 9.640625 17.777344 10.21875 18.03125 10.664062 C 18.203125 10.96875 18.519531 11.140625 18.847656 11.140625 C 19.007812 11.140625 19.164062 11.101562 19.308594 11.015625 C 23.1875 8.804688 27.765625 7.976562 32.195312 8.6875 C 32.703125 8.769531 33.183594 8.421875 33.265625 7.910156 C 33.347656 7.398438 33 6.917969 32.488281 6.832031 C 31.277344 6.640625 30.054688 6.550781 28.835938 6.566406 Z M 36.238281 7.863281 C 35.878906 7.878906 35.539062 8.109375 35.40625 8.46875 C 35.222656 8.957031 35.46875 9.496094 35.953125 9.679688 C 36.621094 9.929688 37.28125 10.214844 37.925781 10.535156 C 38.058594 10.605469 38.203125 10.636719 38.347656 10.636719 C 38.6875 10.636719 39.015625 10.453125 39.183594 10.121094 C 39.414062 9.664062 39.230469 9.097656 38.765625 8.863281 C 38.066406 8.511719 37.339844 8.191406 36.609375 7.921875 C 36.488281 7.878906 36.363281 7.859375 36.242188 7.863281 Z M 42.171875 14.574219 C 43.179688 17.539062 42.492188 19.683594 42.242188 20.292969 C 42.105469 20.628906 42.175781 21.011719 42.421875 21.28125 C 44.042969 23.054688 44.867188 25.210938 44.867188 27.683594 C 44.867188 37.1875 39.234375 39.097656 33.722656 39.707031 C 33.351562 39.75 33.039062 40.003906 32.929688 40.359375 C 32.816406 40.714844 32.929688 41.101562 33.210938 41.347656 C 33.953125 41.980469 35.625 44.734375 35.625 46.875 L 35.625 51.800781 C 35.625 51.820312 35.628906 52.636719 35.894531 53.429688 C 33.722656 54.042969 31.433594 54.375 29.0625 54.375 C 26.691406 54.375 24.398438 54.039062 22.21875 53.425781 C 22.488281 52.628906 22.496094 51.8125 22.496094 51.796875 L 22.5 51.296875 C 22.503906 50.871094 22.511719 50.296875 22.5 48.746094 C 22.496094 48.460938 22.367188 48.195312 22.148438 48.015625 C 21.929688 47.839844 21.640625 47.777344 21.359375 47.835938 C 15.066406 49.207031 13.703125 44.664062 13.652344 44.472656 C 13.640625 44.441406 13.628906 44.410156 13.621094 44.378906 C 12.71875 42.09375 11.53125 40.925781 10.824219 40.398438 C 12.351562 40.9375 13.207031 42.429688 13.226562 42.460938 C 15.707031 46.707031 19.800781 46.816406 21.945312 45.855469 C 22.238281 45.726562 22.445312 45.449219 22.488281 45.132812 C 22.679688 43.792969 24.152344 42.019531 24.894531 41.367188 C 25.171875 41.121094 25.285156 40.734375 25.167969 40.382812 C 25.058594 40.027344 24.753906 39.769531 24.386719 39.730469 C 18.886719 39.105469 13.261719 37.179688 13.261719 27.683594 C 13.261719 25.214844 14.085938 23.054688 15.714844 21.28125 C 15.960938 21.011719 16.027344 20.628906 15.890625 20.292969 C 15.640625 19.683594 14.949219 17.546875 15.953125 14.578125 C 16.75 14.605469 18.695312 14.945312 21.96875 17.167969 C 22.195312 17.320312 22.484375 17.371094 22.75 17.296875 C 24.707031 16.75 26.894531 16.457031 29.0625 16.445312 C 31.238281 16.457031 33.425781 16.75 35.386719 17.296875 C 35.652344 17.371094 35.9375 17.320312 36.164062 17.167969 C 39.457031 14.933594 41.398438 14.601562 42.171875 14.574219 Z M 20.039062 32.246094 C 19.671875 32.199219 19.304688 32.371094 19.113281 32.707031 L 18.175781 34.328125 C 17.914062 34.777344 18.070312 35.351562 18.515625 35.609375 C 18.660156 35.695312 18.824219 35.734375 18.984375 35.734375 C 19.304688 35.734375 19.621094 35.566406 19.792969 35.265625 L 20.730469 33.644531 C 20.992188 33.195312 20.839844 32.621094 20.390625 32.363281 C 20.277344 32.300781 20.160156 32.257812 20.039062 32.246094 Z M 38.085938 32.246094 C 37.964844 32.257812 37.84375 32.300781 37.734375 32.363281 C 37.285156 32.621094 37.132812 33.195312 37.394531 33.648438 L 38.332031 35.269531 C 38.503906 35.570312 38.820312 35.738281 39.140625 35.738281 C 39.300781 35.738281 39.464844 35.695312 39.609375 35.609375 C 40.058594 35.351562 40.210938 34.777344 39.949219 34.332031 L 39.011719 32.710938 C 38.820312 32.375 38.449219 32.199219 38.085938 32.246094 Z M 33.925781 34.074219 C 33.804688 34.054688 33.675781 34.0625 33.546875 34.097656 C 33.050781 34.230469 32.753906 34.742188 32.886719 35.246094 L 33.371094 37.058594 C 33.484375 37.472656 33.863281 37.75 34.277344 37.75 C 34.363281 37.75 34.441406 37.738281 34.523438 37.71875 C 35.019531 37.585938 35.320312 37.070312 35.1875 36.570312 L 34.703125 34.761719 C 34.601562 34.382812 34.285156 34.125 33.925781 34.074219 Z M 24.203125 34.074219 C 23.839844 34.125 23.523438 34.382812 23.421875 34.761719 L 22.941406 36.574219 C 22.804688 37.070312 23.105469 37.585938 23.601562 37.71875 C 23.683594 37.742188 23.761719 37.75 23.847656 37.75 C 24.257812 37.75 24.640625 37.472656 24.753906 37.058594 L 25.238281 35.242188 C 25.371094 34.746094 25.074219 34.230469 24.578125 34.097656 C 24.449219 34.0625 24.324219 34.058594 24.203125 34.070312 Z M 29.0625 34.6875 C 28.542969 34.6875 28.125 35.105469 28.125 35.625 L 28.125 37.5 C 28.125 38.019531 28.542969 38.4375 29.0625 38.4375 C 29.582031 38.4375 30 38.019531 30 37.5 L 30 35.625 C 30 35.105469 29.582031 34.6875 29.0625 34.6875 Z M 29.0625 34.6875 "/>
</g>
</svg>
