<?xml version="1.0" encoding="UTF-8"?>
<svg xmlns="http://www.w3.org/2000/svg" xmlns:xlink="http://www.w3.org/1999/xlink" width="60pt" height="60pt" viewBox="0 0 60 60" version="1.1">
<g id="surface8157393">
<path style=" stroke:none;fill-rule:nonzero;fill:rgb(100%,100%,100%);fill-opacity:1;" d="M 11.25 6.75 C 9.1875 6.75 7.5 8.4375 7.5 10.5 L 7.5 48 C 7.5 50.0625 9.1875 51.75 11.25 51.75 L 48.75 51.75 C 50.8125 51.75 52.5 50.0625 52.5 48 L 52.5 10.5 C 52.5 8.4375 50.8125 6.75 48.75 6.75 Z M 11.25 8.25 L 48.75 8.25 C 50 8.25 51 9.25 51 10.5 L 51 48 C 51 49.25 50 50.25 48.75 50.25 L 11.25 50.25 C 10 50.25 9 49.25 9 48 L 9 10.5 C 9 9.25 10 8.25 11.25 8.25 Z M 17.925781 12.738281 C 15.453125 12.738281 13.429688 14.761719 13.429688 17.230469 C 13.429688 19.703125 15.453125 21.722656 17.925781 21.722656 C 20.394531 21.722656 22.414062 19.703125 22.414062 17.230469 C 22.414062 14.761719 20.398438 12.738281 17.925781 12.738281 Z M 27 12.75 C 26.585938 12.75 26.25 13.085938 26.25 13.5 C 26.25 13.914062 26.585938 14.25 27 14.25 C 27.414062 14.25 27.75 13.914062 27.75 13.5 C 27.75 13.085938 27.414062 12.75 27 12.75 Z M 30 12.75 C 29.585938 12.75 29.25 13.085938 29.25 13.5 C 29.25 13.914062 29.585938 14.25 30 14.25 C 30.414062 14.25 30.75 13.914062 30.75 13.5 C 30.75 13.085938 30.414062 12.75 30 12.75 Z M 33 12.75 C 32.585938 12.75 32.25 13.085938 32.25 13.5 C 32.25 13.914062 32.585938 14.25 33 14.25 C 33.414062 14.25 33.75 13.914062 33.75 13.5 C 33.75 13.085938 33.414062 12.75 33 12.75 Z M 36 12.75 C 35.585938 12.75 35.25 13.085938 35.25 13.5 C 35.25 13.914062 35.585938 14.25 36 14.25 C 36.414062 14.25 36.75 13.914062 36.75 13.5 C 36.75 13.085938 36.414062 12.75 36 12.75 Z M 39 12.75 C 38.585938 12.75 38.25 13.085938 38.25 13.5 C 38.25 13.914062 38.585938 14.25 39 14.25 C 39.414062 14.25 39.75 13.914062 39.75 13.5 C 39.75 13.085938 39.414062 12.75 39 12.75 Z M 42 12.75 C 41.585938 12.75 41.25 13.085938 41.25 13.5 C 41.25 13.914062 41.585938 14.25 42 14.25 C 42.414062 14.25 42.75 13.914062 42.75 13.5 C 42.75 13.085938 42.414062 12.75 42 12.75 Z M 45 12.75 C 44.585938 12.75 44.25 13.085938 44.25 13.5 C 44.25 13.914062 44.585938 14.25 45 14.25 C 45.414062 14.25 45.75 13.914062 45.75 13.5 C 45.75 13.085938 45.414062 12.75 45 12.75 Z M 17.925781 14.238281 C 19.582031 14.238281 20.914062 15.570312 20.914062 17.230469 C 20.914062 18.890625 19.582031 20.222656 17.925781 20.222656 C 16.261719 20.222656 14.929688 18.890625 14.929688 17.230469 C 14.929688 15.570312 16.261719 14.238281 17.925781 14.238281 Z M 37.578125 22.542969 C 35.203125 22.542969 33.382812 23.46875 32.132812 24.652344 L 32.132812 23.058594 L 24.449219 23.058594 L 24.449219 45.316406 L 32.394531 45.316406 L 32.394531 34.300781 C 32.394531 32.996094 32.542969 31.769531 32.976562 30.980469 C 33.414062 30.191406 34.03125 29.71875 35.515625 29.71875 C 36.933594 29.71875 37.390625 30.21875 37.734375 31.089844 C 38.078125 31.964844 38.117188 33.273438 38.117188 34.472656 L 38.117188 45.316406 L 45.316406 45.316406 L 45.316406 43.816406 L 46.066406 44.566406 L 46.066406 33.183594 C 46.066406 30.332031 45.785156 27.730469 44.53125 25.742188 C 43.277344 23.753906 41.007812 22.542969 37.578125 22.542969 Z M 13.945312 23.058594 L 13.945312 45.316406 L 21.902344 45.316406 L 21.902344 23.058594 Z M 37.578125 24.042969 C 40.679688 24.042969 42.277344 24.980469 43.261719 26.542969 C 44.246094 28.101562 44.566406 30.441406 44.566406 33.183594 L 44.566406 43.816406 L 39.617188 43.816406 L 39.617188 34.472656 C 39.617188 33.265625 39.632812 31.8125 39.128906 30.539062 C 38.628906 29.269531 37.402344 28.21875 35.515625 28.21875 C 33.640625 28.21875 32.324219 29.058594 31.664062 30.257812 C 31.003906 31.457031 30.894531 32.898438 30.894531 34.300781 L 30.894531 43.816406 L 25.949219 43.816406 L 25.949219 24.558594 L 30.632812 24.558594 L 30.632812 27.394531 L 31.925781 27.394531 L 32.136719 26.996094 C 32.863281 25.617188 34.710938 24.042969 37.578125 24.042969 Z M 15.445312 24.558594 L 20.402344 24.558594 L 20.402344 43.816406 L 15.445312 43.816406 Z M 15.445312 24.558594 "/>
</g>
</svg>
